<svg id="Groupe_1" data-name="Groupe 1" xmlns="http://www.w3.org/2000/svg" width="181.983" height="108.279" viewBox="0 0 181.983 108.279">
  <path id="Tracé_1" data-name="Tracé 1" d="M37.484,95.978a11.937,11.937,0,0,0-3.157-5.135,6.439,6.439,0,0,0-4.336-1.75,5.609,5.609,0,0,0-5.135,3.2,17.1,17.1,0,0,0-1.788,8.375c0,.615.127,1.084.158,1.667H38.549A23.228,23.228,0,0,0,37.484,95.978Z" transform="translate(19.148 -65.433)" fill="none"/>
  <path id="Tracé_2" data-name="Tracé 2" d="M31.53,104.647a5.681,5.681,0,0,0,5.173-3.265,17.429,17.429,0,0,0,1.826-8.527c0-.6-.082-1.1-.114-1.674H23.092a21.677,21.677,0,0,0,2.124,9.32Q27.5,104.647,31.53,104.647Z" transform="translate(19.281 -54.283)" fill="none"/>
  <path id="Tracé_3" data-name="Tracé 3" d="M31.5,100.691a3.691,3.691,0,0,0,3.576,2.13,6.2,6.2,0,0,0,5.287-3.081c1.331-1.959,1.984-4.85,2.048-8.559H30.435V93.47Q30.435,98.567,31.5,100.691Z" transform="translate(58.491 -54.283)" fill="none"/>
  <path id="Tracé_4" data-name="Tracé 4" d="M31.5,85.361a21.745,21.745,0,0,1-5.782,1.712,41.084,41.084,0,0,1-7.836.8,9.852,9.852,0,0,0-.831,4.489c2.175.108,3.658.52,4.444,1.262a4.738,4.738,0,0,1,1.179,3.607v25.03H33.787V89.4C33.787,87.32,33.032,85.976,31.5,85.361Z" transform="translate(-12.95 -85.361)"/>
  <path id="Tracé_5" data-name="Tracé 5" d="M23.269,97.724c0,2.536-.336,4.248-1.027,5.142s-2.041,1.376-4.064,1.477a16.135,16.135,0,0,0-.533,4.723q3.2-.228,11.025-.235c5.129,0,8.774.082,10.955.235a17.359,17.359,0,0,0-.45-4.723c-1.883-.1-3.151-.59-3.8-1.477s-1-2.606-1-5.142V91.181H23.269Z" transform="translate(-9.8 -54.283)"/>
  <path id="Tracé_6" data-name="Tracé 6" d="M48.929,92.855a17.429,17.429,0,0,1-1.826,8.527,5.681,5.681,0,0,1-5.173,3.265q-4.032,0-6.314-4.146a21.769,21.769,0,0,1-2.124-9.32H21.921c-.006.216-.076.393-.076.609q0,8.216,4.983,12.971t14.036,4.755a22.285,22.285,0,0,0,10.271-2.244,16.023,16.023,0,0,0,6.809-6.422,19.277,19.277,0,0,0,2.39-9.668H48.815C48.846,91.752,48.929,92.259,48.929,92.855Z" transform="translate(12.622 -54.283)"/>
  <path id="Tracé_7" data-name="Tracé 7" d="M54.741,93.23q-4.945-4.86-14.151-4.869a21.982,21.982,0,0,0-9.966,2.213A16.466,16.466,0,0,0,23.7,96.958a18.67,18.67,0,0,0-2.434,9.281h11.57c-.032-.583-.158-1.052-.158-1.667A17.1,17.1,0,0,1,34.467,96.2,5.609,5.609,0,0,1,39.6,93a6.439,6.439,0,0,1,4.336,1.75A11.937,11.937,0,0,1,47.1,99.887a23.228,23.228,0,0,1,1.065,6.353H59.68l.006-.07Q59.686,98.1,54.741,93.23Z" transform="translate(9.536 -69.342)"/>
  <path id="Tracé_8" data-name="Tracé 8" d="M45.91,88.361a19.535,19.535,0,0,1-5.554,1.484,59.372,59.372,0,0,1-8.064.647,9.225,9.225,0,0,0-.837,4.489,8.237,8.237,0,0,1,3.538.729,3.24,3.24,0,0,1,1.591,1.864,11.534,11.534,0,0,1,.425,3.576v4.634c0,.177-.044.292-.044.456H48.116V92.552C48.116,90.32,47.381,88.919,45.91,88.361Z" transform="translate(63.938 -69.342)"/>
  <path id="Tracé_9" data-name="Tracé 9" d="M50.309,99.74a6.2,6.2,0,0,1-5.287,3.081,3.691,3.691,0,0,1-3.576-2.13Q40.38,98.57,40.38,93.47V91.181H29.273v4.108q0,7.532,2.891,10.765t8.673,3.233q6.467,0,10.271-3.576A10.836,10.836,0,0,0,53.77,101.6a20.967,20.967,0,0,0-.38,3.576,5.658,5.658,0,0,0,.571,2.853,3.7,3.7,0,0,0,1.864,1.483,30.656,30.656,0,0,1,11.488-2.511A8.6,8.6,0,0,0,68,103.582a9.874,9.874,0,0,0-.076-1.445,6.832,6.832,0,0,1-2.891-.571,2.527,2.527,0,0,1-1.217-1.743,17.754,17.754,0,0,1-.3-3.842v-4.8H52.356C52.3,94.89,51.64,97.781,50.309,99.74Z" transform="translate(52.287 -54.283)"/>
  <path id="Tracé_10" data-name="Tracé 10" d="M43.891,92.552c0-2.232-.735-3.633-2.206-4.191a21.555,21.555,0,0,1-5.44,1.712,40.278,40.278,0,0,1-7.494.8,9.76,9.76,0,0,0-.837,4.489,7.71,7.71,0,0,1,3.233.767,2.826,2.826,0,0,1,1.331,1.826,16.143,16.143,0,0,1,.3,3.576v4.71H43.891Z" transform="translate(45.035 -69.342)"/>
  <path id="Tracé_11" data-name="Tracé 11" d="M41.719,97.724q0,3.8-1.027,5.142c-.685.888-2.041,1.376-4.07,1.477a16.356,16.356,0,0,0-.533,4.723q3.2-.228,11.031-.235,7.684,0,10.955.235a17.3,17.3,0,0,0-.456-4.723c-1.877-.1-3.145-.59-3.8-1.477s-.989-2.606-.989-5.142V91.181H41.719Z" transform="translate(88.683 -54.283)"/>
  <path id="Tracé_12" data-name="Tracé 12" d="M42.431,96.863A7.5,7.5,0,0,0,47.421,95.3a4.917,4.917,0,0,0,1.864-3.918A5.3,5.3,0,0,0,47.573,87.2a7.042,7.042,0,0,0-4.831-1.528,7.128,7.128,0,0,0-4.755,1.566,5.209,5.209,0,0,0-1.864,4.222,4.88,4.88,0,0,0,1.75,3.912A6.8,6.8,0,0,0,42.431,96.863Z" transform="translate(88.864 -83.695)"/>
  <path id="Tracé_13" data-name="Tracé 13" d="M50.03,88.361a23.177,23.177,0,0,1-5.858,1.712,41.134,41.134,0,0,1-7.836.8A9.76,9.76,0,0,0,35.5,95.36c2.282.108,3.791.545,4.527,1.331a5.82,5.82,0,0,1,1.1,3.994v5.554H52.236V92.4Q52.236,89.28,50.03,88.361Z" transform="translate(85.532 -69.342)"/>
  <path id="Tracé_14" data-name="Tracé 14" d="M64.935,105.9a39.434,39.434,0,0,0-6.815-3.309,44.776,44.776,0,0,1-5.433-2.479,6.656,6.656,0,0,1-2.32-1.864,3.721,3.721,0,0,1-.533-2.054,2.889,2.889,0,0,1,1.021-2.314A4.155,4.155,0,0,1,53.631,93a6.339,6.339,0,0,1,5.021,2.06,9.181,9.181,0,0,1,2.213,5.167,14.114,14.114,0,0,0,3.271-.38,8.784,8.784,0,0,0,2.587-.989,35.312,35.312,0,0,1-.3-4.945c0-1.414.019-2.454.076-3.119a21.461,21.461,0,0,0-5.484-1.864,35.816,35.816,0,0,0-6.847-.571,19.257,19.257,0,0,0-10.194,2.511,8.072,8.072,0,0,0-4.1,7.3,10.441,10.441,0,0,0,1.211,5.287,10.053,10.053,0,0,0,2.549,2.777H65.359C65.207,106.132,65.1,106.011,64.935,105.9Z" transform="translate(108.857 -69.342)"/>
  <path id="Tracé_15" data-name="Tracé 15" d="M66.212,91.181H44.473a11.461,11.461,0,0,0,.957.761,36.279,36.279,0,0,0,6.238,2.973,25.085,25.085,0,0,1,5.858,2.929,3.7,3.7,0,0,1,1.445,3.005,3.206,3.206,0,0,1-1.369,2.694,5.808,5.808,0,0,1-3.576,1.033,6.591,6.591,0,0,1-5.1-2.175,10.487,10.487,0,0,1-2.358-6.27,17.082,17.082,0,0,0-3.347.336,9.3,9.3,0,0,0-2.739.957,37.735,37.735,0,0,1,.228,4.558,31.768,31.768,0,0,1-.3,4.869,31.534,31.534,0,0,0,6.2,2.016,37.567,37.567,0,0,0,7.57.647q7.456,0,11.754-2.847a9.7,9.7,0,0,0,3.271-12.4A9.732,9.732,0,0,0,66.212,91.181Z" transform="translate(111.751 -54.283)"/>
  <text id="labatut" transform="translate(0 96.279)" fill="#161615" font-size="42" font-family="IBMPlexMono-Bold, IBM Plex Mono" font-weight="700"><tspan x="0" y="0">labatut</tspan></text>
</svg>
